<?xml version="1.0" encoding="UTF-8"?> <svg xmlns="http://www.w3.org/2000/svg" width="223" height="53" viewBox="0 0 223 53" fill="none"><path d="M80.598 40.0564C80.598 39.7593 80.7087 39.5179 80.9115 39.3136C81.1144 39.1093 81.3726 39.0165 81.6677 39.0165C81.9628 39.0165 82.221 39.1093 82.4239 39.3136C82.6268 39.5179 82.7374 39.7593 82.7374 40.0564V43.2505H87.3114V40.0564C87.3114 39.7593 87.4221 39.5179 87.6249 39.3136C87.8278 39.1093 88.086 39.0165 88.3627 39.0165C88.6578 39.0165 88.916 39.1093 89.1189 39.3136C89.3217 39.5179 89.4324 39.7593 89.4324 40.0564V48.3946C89.4324 48.6917 89.3217 48.9331 89.1189 49.1374C88.916 49.3417 88.6578 49.4345 88.3627 49.4345C88.0676 49.4345 87.8278 49.3417 87.6249 49.1374C87.4221 48.9331 87.3114 48.6917 87.3114 48.3946V45.1262H82.7374V48.3946C82.7374 48.6917 82.6268 48.9331 82.4239 49.1374C82.221 49.3417 81.9628 49.4345 81.6677 49.4345C81.3726 49.4345 81.1144 49.3417 80.9115 49.1374C80.7087 48.9331 80.598 48.6917 80.598 48.3946V40.0564Z" fill="#00DBBB"></path><path d="M101.439 48.0045C100.406 48.9702 99.1336 49.453 97.5844 49.453C96.0351 49.453 94.7625 48.9702 93.7297 48.0045C92.6968 47.0389 92.1804 45.7946 92.1804 44.2533C92.1804 42.712 92.6968 41.4492 93.7297 40.4835C94.7625 39.5179 96.0536 39.035 97.5844 39.035C99.1152 39.035 100.388 39.5179 101.421 40.5021C102.453 41.4863 102.97 42.7305 102.97 44.2719C102.988 45.7946 102.472 47.0389 101.439 48.0045ZM99.8345 41.9506C99.2443 41.3377 98.5066 41.0221 97.6028 41.0221C96.6991 41.0221 95.9613 41.3377 95.3527 41.9506C94.7625 42.5634 94.449 43.3248 94.449 44.2533C94.449 45.1633 94.7441 45.9246 95.3527 46.5375C95.9429 47.1503 96.6991 47.4474 97.6028 47.4474C98.5066 47.4474 99.2443 47.1503 99.8345 46.5375C100.425 45.9246 100.72 45.1633 100.72 44.2533C100.72 43.3248 100.425 42.5634 99.8345 41.9506Z" fill="#00DBBB"></path><path d="M112.155 41.2263C111.97 41.4121 111.731 41.5235 111.435 41.5235C111.214 41.5235 110.864 41.4121 110.366 41.1892C109.868 40.9664 109.425 40.8549 109.001 40.8549C108.023 40.8549 107.544 41.1706 107.544 41.802C107.544 42.062 107.655 42.2663 107.876 42.4334C108.097 42.6006 108.411 42.7491 108.835 42.8977C108.964 42.9348 109.204 43.0091 109.517 43.0834C109.831 43.1762 110.089 43.2505 110.274 43.3062C110.458 43.3619 110.698 43.4548 110.956 43.5662C111.214 43.6776 111.454 43.8076 111.638 43.9376C112.413 44.4762 112.8 45.2376 112.8 46.2218C112.8 47.206 112.431 47.986 111.712 48.5617C110.974 49.1374 110.052 49.4159 108.927 49.4159C107.95 49.4159 107.046 49.2488 106.253 48.9145C105.589 48.6359 105.257 48.246 105.257 47.7631C105.257 47.4846 105.349 47.2246 105.552 47.0389C105.755 46.8346 105.995 46.7418 106.271 46.7418C106.437 46.7418 106.659 46.816 106.898 46.946C107.157 47.076 107.452 47.2246 107.802 47.3546C108.134 47.4846 108.503 47.5589 108.89 47.5589C109.462 47.5589 109.868 47.4474 110.108 47.2246C110.347 47.0018 110.476 46.7232 110.476 46.4075C110.476 45.9061 110.052 45.4975 109.222 45.219C109.056 45.1633 108.798 45.0704 108.429 44.959C108.06 44.8476 107.71 44.7362 107.415 44.6247C107.101 44.5133 106.825 44.3647 106.566 44.1976C105.736 43.6591 105.312 42.8791 105.312 41.8206C105.312 40.9849 105.644 40.2978 106.327 39.7779C106.991 39.2579 107.931 38.9979 109.148 38.9979C110.108 38.9979 110.901 39.1279 111.509 39.4064C112.136 39.6664 112.45 40.0378 112.45 40.5021C112.45 40.7992 112.358 41.0406 112.155 41.2263Z" fill="#00DBBB"></path><path d="M119.919 39.1465C120.915 39.1465 121.727 39.4065 122.335 39.9079C123.147 40.5764 123.571 41.5049 123.571 42.6934C123.571 43.9191 123.129 44.8662 122.243 45.5533C121.653 46.0175 120.878 46.2404 119.938 46.2404H117.651V48.3945C117.651 48.6917 117.54 48.9331 117.337 49.1373C117.134 49.3416 116.876 49.4345 116.581 49.4345C116.286 49.4345 116.028 49.3416 115.825 49.1373C115.622 48.9331 115.511 48.6917 115.511 48.3945V40.1864C115.511 39.8893 115.622 39.6479 115.825 39.4436C116.028 39.2393 116.286 39.1465 116.581 39.1465H119.919ZM120.768 41.3192C120.491 41.1149 120.122 41.0221 119.643 41.0221H117.651V44.3647H119.606C120.104 44.3647 120.473 44.2719 120.749 44.1048C121.192 43.8076 121.413 43.3434 121.413 42.712C121.395 42.062 121.192 41.5978 120.768 41.3192Z" fill="#00DBBB"></path><path d="M126.264 40.0564C126.264 39.7593 126.375 39.5179 126.578 39.3136C126.78 39.1093 127.039 39.0165 127.334 39.0165C127.629 39.0165 127.887 39.1093 128.09 39.3136C128.293 39.5179 128.403 39.7593 128.403 40.0564V48.3946C128.403 48.6917 128.293 48.9331 128.09 49.1374C127.887 49.3417 127.629 49.4345 127.352 49.4345C127.057 49.4345 126.799 49.3417 126.596 49.1374C126.393 48.9331 126.282 48.6917 126.282 48.3946V40.0564H126.264Z" fill="#00DBBB"></path><path d="M136.076 41.0592V48.3945C136.076 48.6916 135.965 48.9331 135.762 49.1373C135.559 49.3416 135.301 49.4345 135.006 49.4345C134.73 49.4345 134.471 49.3416 134.268 49.1373C134.066 48.9331 133.955 48.6916 133.955 48.3945V41.0592H131.502C131.262 41.0592 131.041 40.9663 130.856 40.7806C130.672 40.5949 130.58 40.3721 130.58 40.1121C130.58 39.8521 130.672 39.6293 130.856 39.4436C131.041 39.2579 131.262 39.165 131.502 39.165H138.529C138.769 39.165 138.99 39.2579 139.174 39.4436C139.359 39.6293 139.451 39.8521 139.451 40.1121C139.451 40.3721 139.359 40.5949 139.174 40.7806C138.99 40.9663 138.769 41.0592 138.529 41.0592H136.076Z" fill="#00DBBB"></path><path d="M145.98 47.2432H142.328L141.812 48.7288C141.646 49.2116 141.295 49.4345 140.761 49.4345C140.447 49.4345 140.207 49.3416 140.023 49.1374C139.838 48.9516 139.746 48.7102 139.746 48.4502C139.746 48.376 139.783 48.2088 139.857 47.9674L142.697 40.1121C142.955 39.3693 143.453 38.9979 144.191 38.9979C144.947 38.9979 145.445 39.3693 145.703 40.1121L148.507 47.9674C148.581 48.1531 148.618 48.3202 148.618 48.4502C148.618 48.7474 148.525 48.9888 148.322 49.1559C148.12 49.3416 147.861 49.4159 147.548 49.4159C147.013 49.4159 146.663 49.1745 146.533 48.7102L145.98 47.2432ZM142.863 45.5161H145.464L144.173 41.7092L142.863 45.5161Z" fill="#00DBBB"></path><path d="M150.923 40.0564C150.923 39.7593 151.015 39.5179 151.218 39.3136C151.421 39.1093 151.679 39.0165 151.974 39.0165C152.269 39.0165 152.527 39.1093 152.73 39.3136C152.933 39.5179 153.044 39.7593 153.044 40.0564V47.3918H156.769C157.028 47.3918 157.249 47.4846 157.415 47.6703C157.599 47.856 157.673 48.0789 157.673 48.3388C157.673 48.5988 157.581 48.8217 157.415 49.0074C157.231 49.1931 157.028 49.2859 156.769 49.2859H151.974C151.661 49.2859 151.421 49.1931 151.218 48.9888C151.015 48.7845 150.923 48.5431 150.923 48.246V40.0564Z" fill="#00DBBB"></path><path d="M93.7298 27.6142C92.4203 28.5428 90.8341 29.007 88.9713 29.007H82.2579C81.7968 29.007 81.4095 28.8399 81.096 28.5242C80.764 28.2085 80.6164 27.8371 80.6164 27.3914V10.3066C80.6164 9.86092 80.7824 9.48951 81.096 9.17381C81.4095 8.85811 81.8153 8.69098 82.2579 8.69098H87.9201C89.58 8.69098 91.0186 9.13667 92.2358 10.0095C93.4531 10.9009 94.0617 12.1636 94.0617 13.835C94.0617 16.0263 93.1949 17.4934 91.4612 18.2547V18.3105C92.8814 18.6076 93.9511 19.2204 94.6519 20.1304C95.3712 21.0403 95.7217 22.1731 95.7217 23.5287C95.6848 25.3301 95.0393 26.6857 93.7298 27.6142ZM89.746 12.1636C89.1189 11.6622 88.3074 11.4208 87.3483 11.4208H83.9178V17.3448H87.5327C88.418 17.3448 89.1742 17.1034 89.7829 16.6205C90.3915 16.1377 90.705 15.3578 90.705 14.2807C90.6866 13.3707 90.373 12.665 89.746 12.1636ZM91.3321 20.8917C90.6866 20.3161 89.7091 20.0189 88.4365 20.0189H83.8994V26.2772H88.2889C89.4693 26.2772 90.4468 26.0357 91.1846 25.5343C91.9407 25.0329 92.3096 24.2344 92.3096 23.1202C92.3096 22.2102 91.9961 21.4674 91.3321 20.8917Z" fill="#8C8C8C"></path><path d="M113.298 24.4387H104.87L103.486 28.1342C103.21 28.9142 102.656 29.3041 101.826 29.3041C101.347 29.3041 100.978 29.1556 100.683 28.8585C100.388 28.5613 100.259 28.2085 100.259 27.7814C100.259 27.5585 100.314 27.2985 100.443 26.9828L106.862 10.1395C107.304 8.9881 108.06 8.41241 109.167 8.41241C110.274 8.41241 111.048 8.9881 111.472 10.1395L117.835 26.9828C117.928 27.3171 117.983 27.5771 117.983 27.7628C117.983 28.2456 117.835 28.617 117.522 28.8956C117.208 29.1742 116.821 29.3041 116.323 29.3041C115.475 29.3041 114.94 28.9142 114.718 28.1342L113.298 24.4387ZM105.718 21.7646H112.505L109.13 12.665L105.718 21.7646Z" fill="#8C8C8C"></path><path d="M123.018 4.43833L124.936 0.798528C125.213 0.259986 125.582 0 126.061 0C126.375 0 126.651 0.111423 126.909 0.334268C127.168 0.557113 127.278 0.835669 127.278 1.15137C127.278 1.35564 127.168 1.6342 126.946 1.98704L124.844 5.44113C124.567 5.9054 124.235 6.12824 123.829 6.12824C123.553 6.12824 123.313 6.03539 123.11 5.84968C122.907 5.66398 122.797 5.44114 122.797 5.18115C122.797 5.01402 122.87 4.75403 123.018 4.43833ZM123.313 10.0466C123.313 9.60091 123.479 9.2295 123.793 8.91381C124.124 8.59811 124.512 8.43097 124.954 8.43097C125.434 8.43097 125.821 8.57954 126.135 8.89524C126.448 9.21093 126.614 9.58234 126.614 10.0466V27.6885C126.614 28.1342 126.448 28.5056 126.135 28.8213C125.803 29.137 125.416 29.3041 124.973 29.3041C124.512 29.3041 124.124 29.137 123.811 28.8213C123.479 28.5056 123.331 28.1342 123.331 27.6885V10.0466H123.313Z" fill="#8C8C8C"></path><path d="M145.003 24.4387H136.574L135.191 28.1342C134.914 28.9142 134.361 29.3041 133.531 29.3041C133.051 29.3041 132.682 29.1556 132.387 28.8585C132.092 28.5613 131.963 28.2085 131.963 27.7814C131.963 27.5585 132.018 27.2985 132.147 26.9828L138.566 10.1395C139.008 8.9881 139.765 8.41241 140.871 8.41241C141.978 8.41241 142.752 8.9881 143.177 10.1395L149.54 26.9828C149.632 27.3171 149.687 27.5771 149.687 27.7628C149.687 28.2456 149.54 28.617 149.226 28.8956C148.913 29.1742 148.525 29.3041 148.027 29.3041C147.179 29.3041 146.644 28.9142 146.423 28.1342L145.003 24.4387ZM137.422 21.7646H144.21L140.834 12.665L137.422 21.7646Z" fill="#8C8C8C"></path><path d="M177.943 12.1636C177.629 12.4608 177.26 12.6093 176.836 12.6093C176.467 12.6093 175.785 12.4236 174.789 12.0336C173.793 11.6437 172.852 11.458 171.912 11.458C169.403 11.458 168.149 12.2565 168.149 13.835C168.149 14.9306 169.071 15.7849 170.897 16.4348C171.192 16.5277 171.782 16.7134 172.686 16.992C173.59 17.2519 174.346 17.5119 174.973 17.7719C175.6 18.0133 176.172 18.3105 176.707 18.6447C178.348 19.6661 179.16 21.1517 179.16 23.1202C179.16 25.0515 178.459 26.5557 177.076 27.6699C175.692 28.7656 173.885 29.3227 171.709 29.3227C170.049 29.3227 168.444 29.0442 166.895 28.4685C165.346 27.9114 164.571 27.1685 164.571 26.2772C164.571 25.8129 164.737 25.4415 165.051 25.1258C165.364 24.8101 165.733 24.6615 166.176 24.6615C166.508 24.6615 166.932 24.7915 167.43 25.0701C167.928 25.3486 168.536 25.6272 169.256 25.9243C169.975 26.2215 170.768 26.3514 171.653 26.3514C172.981 26.3514 173.959 26.0729 174.604 25.5158C175.25 24.9587 175.563 24.253 175.563 23.3616C175.563 22.2102 174.715 21.3003 173.018 20.6132C172.797 20.5389 172.004 20.2789 170.602 19.8147C169.2 19.3504 168.168 18.9418 167.448 18.5519C165.585 17.5119 164.663 15.9706 164.663 13.9278C164.663 12.2565 165.309 10.9194 166.6 9.91662C167.891 8.91382 169.717 8.41241 172.096 8.41241C172.539 8.41241 173.055 8.44956 173.645 8.52384C174.235 8.59812 174.936 8.70954 175.692 8.87668C176.449 9.04381 177.094 9.32237 177.611 9.69377C178.127 10.0652 178.404 10.5109 178.404 11.0308C178.404 11.4951 178.238 11.8665 177.943 12.1636Z" fill="#8C8C8C"></path><path d="M197.991 24.5687C198.821 23.6216 199.226 22.2659 199.226 20.5203V10.0466C199.226 9.60091 199.392 9.2295 199.706 8.9138C200.038 8.5981 200.425 8.43097 200.868 8.43097C201.329 8.43097 201.716 8.5981 202.03 8.9138C202.362 9.2295 202.509 9.60091 202.509 10.0466V20.9846C202.509 23.3802 201.882 25.2929 200.647 26.6857C199.134 28.4313 196.866 29.3041 193.859 29.3041C190.872 29.3041 188.621 28.4313 187.109 26.6857C185.873 25.2929 185.246 23.3987 185.246 20.9846V10.0466C185.246 9.60091 185.412 9.2295 185.726 8.9138C186.058 8.5981 186.445 8.43097 186.888 8.43097C187.33 8.43097 187.736 8.5981 188.05 8.9138C188.382 9.2295 188.529 9.60091 188.529 10.0466V20.5018C188.529 22.2474 188.935 23.603 189.765 24.5501C190.687 25.6272 192.052 26.1657 193.823 26.1657C195.704 26.1657 197.069 25.6272 197.991 24.5687Z" fill="#8C8C8C"></path><path d="M209.684 10.0466C209.684 9.60091 209.85 9.2295 210.163 8.9138C210.495 8.5981 210.883 8.43097 211.325 8.43097C211.805 8.43097 212.192 8.57953 212.506 8.89523C212.819 9.21093 212.985 9.58233 212.985 10.0466V26.0543H221.562C221.949 26.0543 222.299 26.2029 222.576 26.4814C222.853 26.7785 222.982 27.1128 222.982 27.5028C222.982 27.9113 222.853 28.2642 222.576 28.5613C222.299 28.8584 221.967 28.9884 221.562 28.9884H211.325C210.864 28.9884 210.477 28.8213 210.163 28.5056C209.831 28.1899 209.684 27.8185 209.684 27.3728V10.0466Z" fill="#8C8C8C"></path><path d="M6.23389 33.4639L25.6364 53L31.1326 47.466L18.3144 34.5595C14.6441 30.864 8.87131 30.6226 3.83624 30.6226C2.52676 30.6226 1.25416 30.6969 0 30.864C2.43454 30.864 4.62931 31.8668 6.23389 33.4639Z" fill="#00C3F7"></path><path d="M36.5919 32.1268L48.8199 44.4204L54.316 38.8864L48.4879 32.7768C44.8176 29.0813 39.0448 28.8398 34.0098 28.8398C32.7003 28.8398 31.4277 28.9141 30.1735 29.0813C32.5896 29.0998 35.0057 30.5297 36.5919 32.1268Z" fill="#00C3F7"></path><path d="M51.4757 31.0312L56.8058 36.3794L62.3573 30.7897C58.7055 27.9485 53.486 27.7442 48.8936 27.7442C47.5841 27.7442 46.3115 27.8185 45.0574 27.9856C47.4735 27.9856 49.8896 29.4155 51.4757 31.0312Z" fill="#00C3F7"></path><path d="M21.7817 32.8139L41.2027 52.35L46.6989 46.816L33.8806 33.9096C30.2104 30.2141 24.4376 29.9726 19.4025 29.9726C18.093 29.9726 16.8204 30.0469 15.5663 30.2141C18.0008 30.2141 20.1956 31.2169 21.7817 32.8139Z" fill="#00C3F7"></path><path d="M59.72 24.5315L40.299 4.99542L34.8029 10.5294L47.6211 23.4359C51.2913 27.1314 57.0641 27.3728 62.0992 27.3728C63.4087 27.3728 64.6813 27.2985 65.9354 27.1314C63.5009 27.1314 61.3061 26.1471 59.72 24.5315Z" fill="#00DBBB"></path><path d="M30.1551 29.0998C31.4093 28.9327 32.7003 28.8584 33.9913 28.8584C34.4893 28.8584 35.0057 28.8584 35.5221 28.877C33.1798 28.7841 30.8744 27.3914 29.3436 25.85L17.1525 13.5564L11.6563 19.0904L17.466 25.1815C20.7674 28.5056 25.7656 29.0256 30.4133 29.0998C30.3211 29.0998 30.2473 29.0998 30.1551 29.0998Z" fill="#00DBBB"></path><path d="M48.8936 27.7442C49.4838 27.7442 50.074 27.7442 50.6827 27.7627C48.2481 27.7627 46.0533 26.7785 44.4488 25.1629L25.0462 5.6268L19.5501 11.1608L32.3683 24.0672C35.5959 27.3171 40.4834 27.8927 45.0574 27.9856C46.3116 27.837 47.5842 27.7442 48.8936 27.7442Z" fill="#00DBBB"></path><path d="M19.4025 29.9726C19.9189 29.9726 20.4538 29.9726 20.9887 29.9912C18.6279 29.9169 16.304 28.5241 14.7548 26.9642L9.42461 21.616L3.87313 27.2056C7.06385 29.6755 11.435 30.1583 15.5478 30.2326C16.8204 30.0469 18.1115 29.9726 19.4025 29.9726Z" fill="#00DBBB"></path></svg> 